<svg xmlns="http://www.w3.org/2000/svg" viewBox="0 0 370 180">
  <title>svg-camera</title>
  <g id="图层_2" data-name="图层 2">
    <g id="图层_1-2" data-name="图层 1">
      <g id="svg-camera">
        <rect id="frame" class="cls-1" width="370" height="180"/>
        <rect class="cls-2" x="18" y="44" width="102" height="102" rx="26"/>
        <path class="cls-3"
              d="M94,45a25,25,0,0,1,25,25v50a25,25,0,0,1-25,25H44a25,25,0,0,1-25-25V70A25,25,0,0,1,44,45H94m0-2H44A27,27,0,0,0,17,70v50a27,27,0,0,0,27,27H94a27,27,0,0,0,27-27V70A27,27,0,0,0,94,43Z"/>
        <circle class="cls-4" cx="93" cy="95.25" r="18.5"/>
        <path d="M93,78.25a17,17,0,1,1-17,17,17,17,0,0,1,17-17m0-3a20,20,0,1,0,20,20,20,20,0,0,0-20-20Z"/>
        <circle class="cls-4" cx="45.5" cy="71.75" r="18.5"/>
        <path d="M45.5,54.75a17,17,0,1,1-17,17,17,17,0,0,1,17-17m0-3a20,20,0,1,0,20,20,20,20,0,0,0-20-20Z"/>
        <circle class="cls-4" cx="45.5" cy="118.75" r="18.5"/>
        <path d="M45.5,101.75a17,17,0,1,1-17,17,17,17,0,0,1,17-17m0-3a20,20,0,1,0,20,20,20,20,0,0,0-20-20Z"/>
        <circle cx="90.5" cy="131.5" r="7.5"/>
        <polyline id="标线" class="cls-5" points="59.5 54.5 80.5 33.5 165.75 33.5"/>
        <polyline id="标线-2" data-name="标线" class="cls-5" points="110.5 82.5 117.5 76.5 165.75 76.5"/>
        <line id="标线-3" data-name="标线" class="cls-5" x1="165.75" y1="118.5" x2="66.5" y2="118.5"/>
        <polyline id="标线-4" data-name="标线" class="cls-5" points="94.5 139.5 106.5 155.5 165.75 155.5"/>
        <text class="cls-6" transform="translate(183.38 38.12)">远焦</text>
        <text class="cls-6" transform="translate(183.38 79.12)">广角</text>
        <text class="cls-6" transform="translate(183.38 122.12)">默认</text>
        <text class="cls-6" transform="translate(183.38 158.12)">雷达</text>
        <text class="cls-7" transform="translate(224.67 21.73)">234567890-234123461
          <tspan x="0" y="12">9287364981726394876</tspan>
          <tspan x="0" y="24">1298374619287363</tspan>
        </text>
        <text class="cls-7" transform="translate(224.67 64.73)">234567890-234123461
          <tspan x="0" y="12">9287364981726394876</tspan>
          <tspan x="0" y="24">1298374619287363</tspan>
        </text>
        <text class="cls-7" transform="translate(224.67 149.73)">234567890-234123461
          <tspan x="0" y="12">928736498172639487</tspan>
        </text>
        <text class="cls-7" transform="translate(224.67 107.73)">234567890-234123461
          <tspan x="0" y="12">9287364981726394876</tspan>
          <tspan x="0" y="24">1298374619287363</tspan>
        </text>
      </g>
    </g>
  </g>
</svg>
