<?xml version="1.0" encoding="UTF-8"?>
<svg width="162px" height="162px" viewBox="0 0 162 162" version="1.1" xmlns="http://www.w3.org/2000/svg" xmlns:xlink="http://www.w3.org/1999/xlink">
    <title>iphone</title>
    <g id="iphone" stroke="none" stroke-width="1" fill="none" fill-rule="evenodd">
        <path d="M48.9735982,2 L113.026402,2 C116.713112,2 118.021893,2.45455671 119.362158,3.17133807 C120.856591,3.97056958 122.02943,5.14340933 122.828662,6.63784232 C123.545443,7.97810693 124,9.28688816 124,12.9735982 L124,12.9735982 L124,149.026402 C124,152.713112 123.545443,154.021893 122.828662,155.362158 C122.02943,156.856591 120.856591,158.02943 119.362158,158.828662 C118.021893,159.545443 116.713112,160 113.026402,160 L113.026402,160 L48.9735982,160 C45.2868882,160 43.9781069,159.545443 42.6378423,158.828662 C41.1434093,158.02943 39.9705696,156.856591 39.1713381,155.362158 C38.4545567,154.021893 38,152.713112 38,149.026402 L38,149.026402 L38,12.9735982 C38,9.28688816 38.4545567,7.97810693 39.1713381,6.63784232 C39.9705696,5.14340933 41.1434093,3.97056958 42.6378423,3.17133807 C43.9781069,2.45455671 45.2868882,2 48.9735982,2 L48.9735982,2 Z" id="Rectangle" stroke="#FFFFFF" stroke-width="4"></path>
        <path d="M81.3426618,67.4866156 C79.2090779,67.4866156 75.9064068,65.0595954 72.4283728,65.147319 C67.839706,65.2058014 63.6309925,67.8082689 61.2635911,71.9312791 C56.4995613,80.2065407 60.0360497,92.4293652 64.6831708,99.1548428 C66.9628907,102.429858 69.6517909,106.11425 73.2175065,105.997285 C76.6370863,105.851079 77.9230821,103.774954 82.0733412,103.774954 C86.1943732,103.774954 87.3634603,105.997285 90.9876302,105.909562 C94.6702545,105.851079 97.0084287,102.576064 99.2589213,99.2718077 C101.86014,95.4704507 102.941546,91.7860587 103,91.5813702 C102.912318,91.552129 95.8393416,88.8326967 95.7516601,80.6451588 C95.6932057,73.8027163 101.334051,70.5277011 101.597095,70.3814951 C98.382106,65.6736607 93.4427131,65.147319 91.7183096,65.0303542 C87.2173244,64.6794597 83.4470185,67.4866156 81.3426618,67.4866156 L81.3426618,67.4866156 Z M89.1197818,60.2961077 C91.0299604,58.1025606 92.293617,55.0372191 91.9409687,52 C89.2079439,52.1124896 85.9165592,53.7435887 83.9476058,55.9371358 C82.184364,57.8775814 80.6562212,60.9991676 81.0676442,63.9801419 C84.0945427,64.2051211 87.2096032,62.4896548 89.1197818,60.2961077" id="Shape" fill="#FFFFFF" fill-rule="nonzero"></path>
    </g>
</svg>